<svg xmlns="http://www.w3.org/2000/svg" version="1.1" xmlns:xlink="http://www.w3.org/1999/xlink" xmlns:svgjs="http://svgjs.dev/svgjs" width="2000" height="419" viewBox="0 0 2000 419"><g transform="matrix(1,0,0,1,-1.2121212121212466,-2.226833300218857)"><svg viewBox="0 0 396 83" data-background-color="#ffffff" preserveAspectRatio="xMidYMid meet" height="419" width="2000" xmlns="http://www.w3.org/2000/svg" xmlns:xlink="http://www.w3.org/1999/xlink"><g id="tight-bounds" transform="matrix(1,0,0,1,0.2400000000000091,0.4411149496853568)"><svg viewBox="0 0 395.52 82.1177701006293" height="82.1177701006293" width="395.52"><g><svg viewBox="0 0 544.0399552228422 112.95344854506982" height="82.1177701006293" width="395.52"><g transform="matrix(1,0,0,1,0,13.45994898688108)"><svg viewBox="0 0 395.52 86.03355057130766" height="86.03355057130766" width="395.52"><g id="textblocktransform"><svg viewBox="0 0 395.52 86.03355057130766" height="86.03355057130766" width="395.52" id="textblock"><g><svg viewBox="0 0 395.52 86.03355057130766" height="86.03355057130766" width="395.52"><g transform="matrix(1,0,0,1,0,0)"><svg width="395.52" viewBox="2.35 -25.35 118.14 25.700000000000003" height="86.03355057130766" data-palette-color="#111111"><path d="M22.95 0L19.5 0 19.2-4.5Q18.15-2.2 16.1-0.93 14.05 0.35 10.9 0.35L10.9 0.35Q8.2 0.35 6.3-0.5 4.4-1.35 3.38-2.93 2.35-4.5 2.35-6.65L2.35-6.65Q2.35-9.8 4.7-11.83 7.05-13.85 11.5-14.3L11.5-14.3 19.2-15.15 19.2-17.15Q19.2-19.25 17.65-20.53 16.1-21.8 13.45-21.8L13.45-21.8Q10.85-21.8 9.13-20.6 7.4-19.4 6.75-17.15L6.75-17.15 3.35-18.35Q4.35-21.65 7.03-23.5 9.7-25.35 13.55-25.35L13.55-25.35Q18-25.35 20.48-23.08 22.95-20.8 22.95-16.9L22.95-16.9 22.95 0ZM19.2-11.15L19.2-11.95 11.45-11.05Q8.95-10.75 7.65-9.68 6.35-8.6 6.35-6.85L6.35-6.85Q6.35-5.1 7.63-4.05 8.9-3 11.3-3L11.3-3Q14.05-3 15.8-4.1 17.55-5.2 18.38-7.08 19.2-8.95 19.2-11.15L19.2-11.15ZM40.9 0.35L40.9 0.35Q37.25 0.35 34.5-1.25 31.75-2.85 30.22-5.73 28.7-8.6 28.7-12.4L28.7-12.4Q28.7-16.25 30.22-19.18 31.75-22.1 34.5-23.73 37.25-25.35 40.9-25.35L40.9-25.35Q44.75-25.35 47.65-23.58 50.55-21.8 51.85-18.65L51.85-18.65 48.4-17.45Q47.65-19.45 45.67-20.63 43.7-21.8 41.1-21.8L41.1-21.8Q38.55-21.8 36.67-20.65 34.8-19.5 33.77-17.4 32.75-15.3 32.75-12.45L32.75-12.45Q32.75-8.25 35-5.73 37.25-3.2 41-3.2L41-3.2Q43.55-3.2 45.55-4.35 47.55-5.5 48.5-7.45L48.5-7.45 51.9-6.25Q50.55-3.15 47.65-1.4 44.75 0.35 40.9 0.35ZM58.05 0L58.05-25 61.5-25 61.75-21.4Q62.85-23.2 64.72-24.28 66.6-25.35 69.2-25.35L69.2-25.35Q71.85-25.35 74.02-24.08 76.2-22.8 77.4-20.3L77.4-20.3Q78.55-22.85 80.9-24.1 83.25-25.35 86.1-25.35L86.1-25.35Q88.9-25.35 91.05-24.13 93.2-22.9 94.4-20.48 95.6-18.05 95.6-14.4L95.6-14.4 95.6 0 91.84 0 91.84-13.95Q91.84-17.85 90.17-19.88 88.5-21.9 85.4-21.9L85.4-21.9Q82.25-21.9 80.4-19.73 78.55-17.55 78.55-13.3L78.55-13.3 78.55 0 74.8 0 74.8-13.95Q74.8-17.85 73.2-19.88 71.6-21.9 68.5-21.9L68.5-21.9Q65.35-21.9 63.57-19.73 61.8-17.55 61.8-13.3L61.8-13.3 61.8 0 58.05 0ZM101.29-6.45L104.89-7.65Q105.19-6.15 105.99-5.18 106.79-4.2 108.07-3.7 109.34-3.2 111.04-3.2L111.04-3.2Q113.69-3.2 115.07-4.23 116.44-5.25 116.44-6.8L116.44-6.8Q116.44-8.1 115.62-8.9 114.79-9.7 113.44-10.23 112.09-10.75 110.44-11.15L110.44-11.15Q109.14-11.45 107.64-11.88 106.14-12.3 104.79-13.05 103.44-13.8 102.59-15 101.74-16.2 101.74-18.15L101.74-18.15Q101.74-20.3 102.92-21.93 104.09-23.55 106.17-24.45 108.24-25.35 110.94-25.35L110.94-25.35Q114.04-25.35 116.47-24 118.89-22.65 119.84-19.8L119.84-19.8 116.34-18.6Q115.99-19.9 115.07-20.6 114.14-21.3 113.02-21.55 111.89-21.8 110.79-21.8L110.79-21.8Q108.54-21.8 107.17-20.93 105.79-20.05 105.79-18.3L105.79-18.3Q105.79-17.35 106.24-16.73 106.69-16.1 107.49-15.7 108.29-15.3 109.39-15.03 110.49-14.75 111.79-14.4L111.79-14.4Q113.24-14.05 114.74-13.53 116.24-13 117.54-12.18 118.84-11.35 119.67-10.08 120.49-8.8 120.49-6.9L120.49-6.9Q120.49-4.7 119.29-3.08 118.09-1.45 115.97-0.55 113.84 0.35 111.04 0.35L111.04 0.35Q107.19 0.35 104.67-1.38 102.14-3.1 101.29-6.45L101.29-6.45Z" opacity="1" transform="matrix(1,0,0,1,0,0)" fill="#ffffff" class="wordmark-text-0" data-fill-palette-color="primary" id="text-0"></path></svg></g></svg></g></svg></g></svg></g><g transform="matrix(1,0,0,1,415.830456484672,0)"><svg viewBox="0 0 128.20949873817017 112.95344854506982" height="112.95344854506982" width="128.20949873817017"><g><svg xmlns="http://www.w3.org/2000/svg" xmlns:xlink="http://www.w3.org/1999/xlink" version="1.1" x="0" y="0" viewBox="6.3 11.5 87.4 77" style="enable-background:new 0 0 100 100;" xml:space="preserve" height="112.95344854506982" width="128.20949873817017" class="icon-icon-0" data-fill-palette-color="accent" id="icon-0"><path d="M72.3 12.3L71.9 11.5H28.2L6.3 50 28.1 88.5H71.8L93.7 50zM33.3 25.3L9.9 47.7 28.5 14.9zM70.7 14.8L77.1 50.5 36.9 25.8zM35.5 27.3L76.5 52.5 35.5 75.8zM77 54.5L69.8 85.3 37.2 77.2zM33.5 75L9.9 50.5 33.5 27.8zM33.2 77.6L28.6 85.3 11.5 55.1zM35 78.6L66.4 86.5H30.2zM79.3 53.3L90.9 50.8 72.1 84zM90.7 48.9L79.3 51.4 73.4 18.3zM35 24.3L30 13.5H68.2z" fill="#ffffff" data-fill-palette-color="accent"></path></svg></g></svg></g></svg></g><defs></defs></svg><rect width="395.52" height="82.1177701006293" fill="none" stroke="none" visibility="hidden"></rect></g></svg></g></svg>